<?xml version="1.0" encoding="UTF-8" standalone="no"?>
<svg
   xmlns:dc="http://purl.org/dc/elements/1.1/"
   xmlns:cc="http://creativecommons.org/ns#"
   xmlns:rdf="http://www.w3.org/1999/02/22-rdf-syntax-ns#"
   xmlns:svg="http://www.w3.org/2000/svg"
   xmlns="http://www.w3.org/2000/svg"
   id="svg172"
   version="1.1"
   height="1122.51968504"
   width="793.700787402">
  <metadata
     id="metadata176">
    <rdf:RDF>
      <cc:Work
         rdf:about="">
        <dc:format>image/svg+xml</dc:format>
        <dc:type
           rdf:resource="http://purl.org/dc/dcmitype/StillImage" />
        <dc:title></dc:title>
      </cc:Work>
    </rdf:RDF>
  </metadata>
  <desc
     id="desc2">C:\Users\JustFelix\Documents\Surpreme_Leuchtelogo.dxf - scale = 1.000000, origin = (0.000000, 0.000000), method = manual</desc>
  <defs
     id="defs16">
    <marker
       style="overflow:visible"
       refY="0.0"
       refX="0.0"
       orient="auto"
       id="DistanceX">
      <path
         id="path4"
         style="stroke:#000000; stroke-width:0.5"
         d="M 3,-3 L -3,3 M 0,-5 L  0,5" />
    </marker>
    <pattern
       y="0"
       x="0"
       width="8"
       patternUnits="userSpaceOnUse"
       id="Hatch"
       height="8">
      <path
         id="path7"
         stroke-width="0.25"
         stroke="#000000"
         linecap="square"
         d="M8 4 l-4,4" />
      <path
         id="path9"
         stroke-width="0.25"
         stroke="#000000"
         linecap="square"
         d="M6 2 l-4,4" />
      <path
         id="path11"
         stroke-width="0.25"
         stroke="#000000"
         linecap="square"
         d="M4 0 l-4,4" />
    </pattern>
    <symbol
       id="*MODEL_SPACE" />
    <symbol
       id="*PAPER_SPACE" />
  </defs>
  <g
     id="g170">
    <path
       id="path26"
       style="fill:none;stroke:#000000"
       d="m 538.61441,649.96683 c 1.97515,46.646 -11.0029,82.79143 -40.39203,112.49674" />
    <path
       id="path28"
       style="fill:none;stroke:#000000"
       d="m 490.92245,375.52986 c -8.62851,-8.62853 -17.00095,-11.3383 -34.44386,-11.14789" />
    <path
       id="path30"
       style="fill:none;stroke:#000000"
       d="m 500.65619,420.21209 c 4.72834,-17.75774 1.25734,-33.69115 -9.73374,-44.68223" />
    <path
       id="path32"
       style="fill:none;stroke:#000000"
       d="m 482.02366,452.65495 c 7.56411,-6.97235 15.5556,-20.88709 18.63253,-32.44286" />
    <path
       id="path34"
       style="fill:none;stroke:#000000"
       d="m 282.90294,794.53869 c -13.5225,-7.05683 -31.53668,-24.72821 -38.11711,-37.39171" />
    <path
       id="path36"
       style="fill:none;stroke:#000000"
       d="m 234.48951,705.7454 c 0.0724,-23.81755 0.36924,-26.51332 4.05075,-36.7898" />
    <path
       id="path38"
       style="fill:none;stroke:#000000"
       d="m 400.32164,425.18838 c 0.91151,19.86269 4.21264,29.10547 16.1163,45.12392" />
    <path
       id="path40"
       style="fill:none;stroke:#000000"
       d="m 402.16524,400.33236 c -1.98305,6.82148 -2.40817,12.55317 -1.8436,24.85602" />
    <path
       id="path42"
       style="fill:none;stroke:#000000"
       d="m 214.12126,678.40684 c 0.0725,-1.7612 0.43078,-2.11941 0.91339,-0.9134" />
    <path
       id="path44"
       style="fill:none;stroke:#000000"
       d="m 121.49797,536.14574 c 1.09134,-0.43671 2.39528,-0.38301 2.89764,0.11928" />
    <path
       id="path46"
       style="fill:none;stroke:#000000"
       d="m 481.59246,336.80026 c 25.6935,3.91183 40.09994,10.37101 53.71389,24.0828" />
    <path
       id="path48"
       style="fill:none;stroke:#000000"
       d="m 456.47859,364.38197 c -28.93373,0.31586 -47.533,12.62684 -54.31335,35.95039" />
    <path
       id="path50"
       style="fill:none;stroke:#000000"
       d="m 238.54026,668.9556 c 11.24531,-31.38979 35.01745,-53.74374 65.35409,-61.45519" />
    <path
       id="path52"
       style="fill:none;stroke:#000000"
       d="m 235.44156,531.88715 c 6.2005,-11.37258 14.49031,-35.27897 23.10276,-66.62438" />
    <path
       id="path54"
       style="fill:none;stroke:#000000"
       d="m 464.21716,518.81609 c 33.87941,29.91116 48.22855,47.31314 60.67061,73.57858" />
    <path
       id="path56"
       style="fill:none;stroke:#000000"
       d="m 358.25388,586.94882 c -1.76118,-0.0726 -2.1194,-0.43077 -0.91339,-0.91337" />
    <path
       id="path58"
       style="fill:none;stroke:#000000"
       d="m 220.68421,656.3425 c -2.85931,10.54165 -4.85508,16.44542 -4.43503,13.11944" />
    <path
       id="path60"
       style="fill:none;stroke:#000000"
       d="m 366.97806,356.18449 c 31.83138,-17.98872 75.39167,-25.35588 114.6144,-19.38423" />
    <path
       id="path62"
       style="fill:none;stroke:#000000"
       d="m 416.43794,470.3123 c 10.79267,14.52339 20.81625,24.69898 47.77922,48.50379" />
    <path
       id="path64"
       style="fill:none;stroke:#000000"
       d="M 374.9405,558.91523 C 336.2821,516.88581 321.87864,496.63359 314.86013,474.43832" />
    <path
       id="path66"
       style="fill:none;stroke:#000000"
       d="m 278.04484,577.38424 c -22.38437,-0.13092 -24.67514,0.10674 -27.75585,2.88087" />
    <path
       id="path68"
       style="fill:none;stroke:#000000"
       d="m 259.18985,477.10953 c -1.67389,11.00329 -3.39155,30.21069 -3.81703,42.68313" />
    <path
       id="path70"
       style="fill:none;stroke:#000000"
       d="M 244.78583,757.14698 C 235.45391,739.18845 234.40376,733.94585 234.48951,705.7454" />
    <path
       id="path72"
       style="fill:none;stroke:#000000"
       d="m 124.39561,536.26502 c 0.50236,0.50236 -0.39055,0.85968 -1.98425,0.79404" />
    <path
       id="path74"
       style="fill:none;stroke:#000000"
       d="m 535.30635,360.88306 c 14.64727,14.75255 20.09363,30.83998 18.39016,54.32089" />
    <path
       id="path76"
       style="fill:none;stroke:#000000"
       d="m 214.12126,678.40684 h -1e-5" />
    <path
       id="path78"
       style="fill:none;stroke:#000000"
       d="m 158.82081,541.82359 c 27.39371,4.08377 57.25081,5.32109 64.90578,2.6898" />
    <path
       id="path80"
       style="fill:none;stroke:#000000"
       d="m 220.24795,642.24934 c 4.31419,-28.22571 4.78306,-63.27416 0.92548,-69.18035" />
    <path
       id="path82"
       style="fill:none;stroke:#000000"
       d="M 424.14664,624.10761 C 414.62852,604.91329 402.641,589.03127 374.9405,558.91523" />
    <path
       id="path84"
       style="fill:none;stroke:#000000"
       d="m 357.34049,586.03545 v 6e-5" />
    <path
       id="path86"
       style="fill:none;stroke:#000000"
       d="m 121.49797,536.14574 v -6e-5" />
    <path
       id="path88"
       style="fill:none;stroke:#000000"
       d="m 121.49797,536.14568 v 6e-5" />
    <path
       id="path90"
       style="fill:none;stroke:#000000"
       d="m 258.54432,465.26277 c 2.95417,-10.75187 4.99271,-16.98618 4.53009,-13.85403" />
    <path
       id="path92"
       style="fill:none;stroke:#000000"
       d="m 350.0649,584.82167 c -2.91023,-0.40734 -14.81574,-2.21527 -26.45669,-4.01763" />
    <path
       id="path94"
       style="fill:none;stroke:#000000"
       d="m 221.17343,573.06899 c -5.08678,-7.78817 -32.08099,-18.50653 -78.98254,-31.3609" />
    <path
       id="path96"
       style="fill:none;stroke:#000000"
       d="m 329.65545,809.14043 c -14.4431,-2.08131 -35.15772,-8.5509 -46.75251,-14.60174" />
    <path
       id="path98"
       style="fill:none;stroke:#000000"
       d="m 357.34049,586.03551 v -6e-5" />
    <path
       id="path100"
       style="fill:none;stroke:#000000"
       d="m 329.65545,809.14043 v -9e-5" />
    <path
       id="path102"
       style="fill:none;stroke:#000000"
       d="m 215.03465,677.49344 c 0.43672,1.09131 0.38301,2.39528 -0.11937,2.89765" />
    <path
       id="path104"
       style="fill:none;stroke:#000000"
       d="m 335.7027,580.25803 c 10.80945,2.91734 17.27244,4.97097 14.3622,4.56364" />
    <path
       id="path106"
       style="fill:none;stroke:#000000"
       d="m 553.69651,415.20395 c -2.5468,35.10486 -20.68757,55.48293 -49.65018,55.77349" />
    <path
       id="path108"
       style="fill:none;stroke:#000000"
       d="M 498.22238,762.46357 C 473.5258,787.4258 439.11904,803.4461 397.88775,809.18085" />
    <path
       id="path110"
       style="fill:none;stroke:#000000"
       d="m 142.19089,541.70809 c -17.30973,-4.74411 -15.90258,-4.73434 16.62992,0.1155" />
    <path
       id="path112"
       style="fill:none;stroke:#000000"
       d="m 524.88777,592.39467 c 9.34601,19.72968 12.72421,33.89843 13.72664,57.57216" />
    <path
       id="path114"
       style="fill:none;stroke:#000000"
       d="m 255.37282,519.79266 c -0.9687,28.39578 -0.0177,30.8871 14.5661,38.16124" />
    <path
       id="path116"
       style="fill:none;stroke:#000000"
       d="m 309.51228,683.55937 c -3.42083,7.34069 -3.98693,10.5447 -3.91988,22.18603" />
    <path
       id="path118"
       style="fill:none;stroke:#000000"
       d="m 378.78931,644.70712 c 0,0.72697 -2.89134,1.33339 -6.42519,1.34766" />
    <path
       id="path120"
       style="fill:none;stroke:#000000"
       d="m 370.23878,624.53178 c 3.54465,5.12236 8.55053,16.93396 8.55053,20.17534" />
    <path
       id="path122"
       style="fill:none;stroke:#000000"
       d="m 335.1688,656.61521 c -11.30952,6.02792 -20.3181,15.48862 -25.65652,26.94416" />
    <path
       id="path124"
       style="fill:none;stroke:#000000"
       d="m 424.08308,733.44496 c 10.03646,-15.02967 12.91401,-26.77832 12.89399,-52.64444" />
    <path
       id="path126"
       style="fill:none;stroke:#000000"
       d="m 122.41136,537.05906 c -1.76117,-0.0726 -2.11941,-0.43078 -0.91339,-0.91338" />
    <path
       id="path128"
       style="fill:none;stroke:#000000"
       d="m 214.91528,680.39109 c -0.50236,0.50235 -0.85968,-0.39056 -0.79403,-1.98425" />
    <path
       id="path130"
       style="fill:none;stroke:#000000"
       d="m 216.24918,669.46194 c 0.42005,-3.32598 2.2195,-15.57165 3.99877,-27.2126" />
    <path
       id="path132"
       style="fill:none;stroke:#000000"
       d="m 372.36412,646.05478 c -9.44548,0.0381 -26.5815,4.90329 -37.19532,10.56043" />
    <path
       id="path134"
       style="fill:none;stroke:#000000"
       d="m 504.04633,470.97744 c -10.64487,0.1068 -20.956,-3.55803 -26.14601,-9.29293" />
    <path
       id="path136"
       style="fill:none;stroke:#000000"
       d="m 223.72659,544.51339 c 5.07399,-1.74412 6.79061,-3.59426 11.71497,-12.62624" />
    <path
       id="path138"
       style="fill:none;stroke:#000000"
       d="m 477.90032,461.68451 c -2.46407,-2.7228 -2.279,-3.12808 4.12334,-9.02956" />
    <path
       id="path140"
       style="fill:none;stroke:#000000"
       d="m 357.34049,586.03551 c 1.09133,-0.43672 2.39527,-0.38302 2.89765,0.11928" />
    <path
       id="path142"
       style="fill:none;stroke:#000000"
       d="m 397.88775,809.18085 c -13.61956,1.89433 -54.97624,1.86981 -68.2323,-0.0405" />
    <path
       id="path144"
       style="fill:none;stroke:#000000"
       d="m 329.65545,809.14034 v 9e-5" />
    <path
       id="path146"
       style="fill:none;stroke:#000000"
       d="m 269.93892,557.9539 c 11.73345,5.85242 38.72448,15.00657 65.76378,22.30413" />
    <path
       id="path148"
       style="fill:none;stroke:#000000"
       d="m 436.97707,680.80052 c -0.0212,-26.19037 -1.96426,-34.78003 -12.83043,-56.69291" />
    <path
       id="path150"
       style="fill:none;stroke:#000000"
       d="m 263.07441,451.40874 c -0.46262,3.13216 -2.21068,14.69751 -3.88456,25.70079" />
    <path
       id="path152"
       style="fill:none;stroke:#000000"
       d="m 315.16599,416.4215 c 7.38738,-22.55434 28.43771,-47.02756 51.81207,-60.23701" />
    <path
       id="path154"
       style="fill:none;stroke:#000000"
       d="m 333.89252,754.78444 c 31.46357,15.28553 72.16394,5.65563 90.19056,-21.33948" />
    <path
       id="path156"
       style="fill:none;stroke:#000000"
       d="m 360.23814,586.15479 c 0.50236,0.50236 -0.39056,0.85967 -1.98426,0.79403" />
    <path
       id="path158"
       style="fill:none;stroke:#000000"
       d="m 314.86013,474.43832 c -4.92769,-15.58329 -4.78594,-42.47114 0.30586,-58.01682" />
    <path
       id="path160"
       style="fill:none;stroke:#000000"
       d="m 323.60821,580.80404 c -14.63812,-2.26642 -28.68952,-3.32106 -45.56337,-3.4198" />
    <path
       id="path162"
       style="fill:none;stroke:#000000"
       d="m 214.12125,678.40684 h 1e-5" />
    <path
       id="path164"
       style="fill:none;stroke:#000000"
       d="m 250.28899,580.26511 c -7.40356,6.66663 -18.54075,35.2866 -29.60478,76.07739" />
    <path
       id="path166"
       style="fill:none;stroke:#000000"
       d="m 303.89435,607.50041 c 25.71431,-6.53647 55.28946,1.0558 66.34443,17.03137" />
    <path
       id="path168"
       style="fill:none;stroke:#000000"
       d="m 305.5924,705.7454 c 0.13591,23.60427 9.56028,39.93495 28.30012,49.03904" />
  </g>
</svg>
